<svg width="16384" height="16384" viewBox="0 0 16384 16384" fill="none" xmlns="http://www.w3.org/2000/svg">
<path d="M5717.33 14813.9C5296.36 14813.9 4909.51 14711.5 4556.8 14506.7C4204.09 14301.9 3919.64 14017.4 3703.47 13653.3L1211.73 9352.53C1006.93 8988.44 904.533 8601.6 904.533 8192C904.533 7782.4 1006.93 7395.56 1211.73 7031.47L3703.47 2730.67C3919.64 2366.58 4204.09 2082.13 4556.8 1877.33C4909.51 1672.53 5296.36 1570.13 5717.33 1570.13H10666.7C11087.6 1570.13 11474.5 1672.53 11827.2 1877.33C12179.9 2082.13 12464.4 2366.58 12680.5 2730.67L15172.3 7031.47C15377.1 7395.56 15479.5 7782.4 15479.5 8192C15479.5 8601.6 15377.1 8988.44 15172.3 9352.53L12680.5 13653.3C12464.4 14017.4 12179.9 14301.9 11827.2 14506.7C11474.5 14711.5 11087.6 14813.9 10666.7 14813.9H5717.33Z" fill="white"/>
<g filter="url(#filter0_dn_220_80)">
<path d="M7817.25 14813.9H5717.33C5344.95 14813.9 4999.27 14733.7 4680.31 14573.5L5752.91 8358.7L7817.25 14813.9ZM15172.3 7031.47C15377.1 7395.56 15479.5 7782.4 15479.5 8192C15479.5 8601.6 15377.1 8988.45 15172.3 9352.53L12680.5 13653.3C12464.4 14017.4 12179.9 14301.9 11827.2 14506.7C11507.3 14692.4 11159.3 14793.9 10783.3 14811.2L12847.1 3018.13L15172.3 7031.47ZM10666.7 1570.13C11087.6 1570.13 11474.5 1672.53 11827.2 1877.33C12179.9 2082.13 12464.4 2366.58 12680.5 2730.67L12846.7 3017.52H9898.06L8833.1 9046.83L6801.49 3017.52H3754.06L2304.07 11237.9L1211.73 9352.53C1006.93 8988.45 904.533 8601.6 904.533 8192C904.533 7782.4 1006.93 7395.56 1211.73 7031.47L3703.47 2730.67C3919.64 2366.58 4204.09 2082.13 4556.8 1877.33C4909.51 1672.53 5296.36 1570.13 5717.33 1570.13H10666.7Z" fill="#1E1E1E"/>
</g>
<defs>
<filter id="filter0_dn_220_80" x="840.533" y="1570.13" width="14702.9" height="13371.7" filterUnits="userSpaceOnUse" color-interpolation-filters="sRGB">
<feFlood flood-opacity="0" result="BackgroundImageFix"/>
<feColorMatrix in="SourceAlpha" type="matrix" values="0 0 0 0 0 0 0 0 0 0 0 0 0 0 0 0 0 0 127 0" result="hardAlpha"/>
<feOffset dy="64"/>
<feGaussianBlur stdDeviation="32"/>
<feComposite in2="hardAlpha" operator="out"/>
<feColorMatrix type="matrix" values="0 0 0 0 0 0 0 0 0 0 0 0 0 0 0 0 0 0 0.25 0"/>
<feBlend mode="normal" in2="BackgroundImageFix" result="effect1_dropShadow_220_80"/>
<feBlend mode="normal" in="SourceGraphic" in2="BackgroundImageFix" result="shape"/>
<feTurbulence type="fractalNoise" baseFrequency="0.25 0.25" stitchTiles="stitch" numOctaves="3" result="noise" seed="8318" />
<feColorMatrix in="noise" type="luminanceToAlpha" result="alphaNoise" />
<feComponentTransfer in="alphaNoise" result="coloredNoise1">
<feFuncA type="discrete" tableValues="1 1 1 1 1 1 1 1 1 1 1 1 1 1 1 1 1 1 1 1 1 1 1 1 1 1 1 1 1 1 1 1 1 1 1 1 1 1 1 1 1 1 1 1 1 1 1 1 1 1 1 0 0 0 0 0 0 0 0 0 0 0 0 0 0 0 0 0 0 0 0 0 0 0 0 0 0 0 0 0 0 0 0 0 0 0 0 0 0 0 0 0 0 0 0 0 0 0 0 0 "/>
</feComponentTransfer>
<feComposite operator="in" in2="shape" in="coloredNoise1" result="noise1Clipped" />
<feFlood flood-color="rgba(0, 0, 0, 0.25)" result="color1Flood" />
<feComposite operator="in" in2="noise1Clipped" in="color1Flood" result="color1" />
<feMerge result="effect2_noise_220_80">
<feMergeNode in="shape" />
<feMergeNode in="color1" />
</feMerge>
<feBlend mode="normal" in="effect2_noise_220_80" in2="effect1_dropShadow_220_80" result="effect2_noise_220_80"/>
</filter>
</defs>
</svg>
